<svg xmlns="http://www.w3.org/2000/svg" viewBox="0 0 157 28">
  <path d="M21.905 27.357L19.44 15.124h6.207l.526 2.583h.047L35.884.345h9.101L29.349 27.357h-7.444zM15.493.428L0 27.262h9.834l8.233-13.745h8.621L33.948.428H15.493zM146.23 13.646l-4.989-7.803h4.322l2.959 4.844 2.93-4.844h4.322l-4.99 7.803 5.773 8.296h-4.583l-3.452-5.512-3.423 5.512h-4.583l5.714-8.296zm-14.174 5.279c.696 0 1.334-.135 1.914-.406a4.8 4.8 0 0 0 1.48-1.131 4.88 4.88 0 0 0 .928-1.595 5.1 5.1 0 0 0 .348-1.856c0-.735-.135-1.412-.406-2.031-.252-.619-.6-1.151-1.045-1.595a4.46 4.46 0 0 0-1.479-1.073 3.96 3.96 0 0 0-1.74-.406c-.503 0-1.035.106-1.596.319-.541.213-1.044.532-1.508.957a5.24 5.24 0 0 0-1.161 1.595c-.309.638-.464 1.373-.464 2.205 0 .754.126 1.441.377 2.06.271.619.629 1.151 1.074 1.595a5.29 5.29 0 0 0 1.508 1.015c.561.232 1.151.348 1.77.348zm0 3.539c-1.199 0-2.321-.222-3.365-.667a8.95 8.95 0 0 1-2.727-1.857 9 9 0 0 1-1.828-2.727c-.444-1.044-.667-2.147-.667-3.307 0-1.218.232-2.35.696-3.394.465-1.064 1.083-1.973 1.857-2.727a8.98 8.98 0 0 1 2.727-1.827c1.044-.445 2.146-.667 3.307-.667a8.39 8.39 0 0 1 3.248.638 8.24 8.24 0 0 1 2.698 1.798c.793.754 1.422 1.653 1.886 2.698s.696 2.185.696 3.423c0 1.315-.242 2.504-.725 3.568-.464 1.064-1.093 1.973-1.886 2.727-.773.735-1.673 1.305-2.698 1.712s-2.098.609-3.219.609zM118.183.476h3.858v3.539h-3.858V.476zm0 5.366h3.858v16.099h-3.858V5.842zm-16.812 0h4.177l3.887 10.675h.087l3.655-10.675h4.235l-6.527 16.099h-3.016l-6.498-16.099z"/>
  <path d="M91.448 20.434L85.559 5.842h4.409l3.655 10.327L97.51 5.842h4.381l-9.254 21.466h-4.148l2.959-6.875zm-10.273-6.585c0-.832-.135-1.557-.406-2.176-.271-.638-.629-1.16-1.073-1.566-.445-.425-.948-.744-1.508-.957a4.79 4.79 0 0 0-1.712-.319c-.793 0-1.489.155-2.089.464s-1.102.716-1.508 1.218c-.387.483-.687 1.035-.899 1.653a5.83 5.83 0 0 0-.29 1.799 5.49 5.49 0 0 0 .348 1.944 5.09 5.09 0 0 0 1.015 1.566 4.98 4.98 0 0 0 1.508 1.073 4.77 4.77 0 0 0 1.915.377 4.62 4.62 0 0 0 1.856-.377c.58-.251 1.073-.599 1.479-1.044a4.64 4.64 0 0 0 .986-1.595c.251-.619.377-1.305.377-2.06zm3.655 8.093h-3.539V19.94c-.309.367-.686.706-1.131 1.015a8.2 8.2 0 0 1-1.392.812 7.93 7.93 0 0 1-1.537.493 6.45 6.45 0 0 1-1.566.203 7.83 7.83 0 0 1-2.988-.58c-.928-.406-1.76-.986-2.495-1.741-.716-.754-1.286-1.663-1.712-2.727-.425-1.083-.638-2.292-.638-3.626 0-1.238.213-2.369.638-3.394.425-1.044.996-1.944 1.712-2.698.735-.754 1.586-1.344 2.553-1.769.986-.425 2.04-.638 3.162-.638.812 0 1.538.126 2.176.377.657.251 1.209.532 1.654.841.464.29.822.58 1.073.87l.435.493h.058V5.842h3.539v16.099zm-31.073-8.064c0 .89.155 1.653.464 2.292.329.638.725 1.16 1.189 1.566.483.406.996.706 1.537.899s1.044.29 1.508.29c.522 0 1.054-.106 1.596-.319.561-.213 1.064-.532 1.508-.957a4.94 4.94 0 0 0 1.131-1.566c.309-.638.464-1.373.464-2.205a5.01 5.01 0 0 0-.406-2.031 4.76 4.76 0 0 0-1.044-1.595c-.425-.445-.919-.793-1.479-1.044a4.02 4.02 0 0 0-1.711-.377c-.599 0-1.189.116-1.77.348a4.61 4.61 0 0 0-1.508 1.015c-.445.425-.803.957-1.073 1.595-.271.619-.406 1.315-.406 2.089zm-3.626-8.035h3.539v1.886h.058c.483-.599.986-1.064 1.509-1.392.541-.348 1.054-.59 1.537-.725.483-.155.919-.242 1.305-.261l.87-.058c1.315 0 2.475.261 3.481.783a7.57 7.57 0 0 1 2.524 2.002 8.56 8.56 0 0 1 1.537 2.756c.348 1.006.522 2.002.522 2.988a8.84 8.84 0 0 1-.638 3.365c-.406 1.044-.977 1.963-1.712 2.756-.715.773-1.566 1.392-2.553 1.857-.967.445-2.021.667-3.162.667-.677 0-1.276-.068-1.799-.203a5.99 5.99 0 0 1-1.334-.464c-.386-.193-.725-.416-1.015-.667l-.812-.725v6.904H50.13V5.842z"/>
</svg>